<?xml version="1.0" encoding="utf-8"?>
<!-- Generator: Adobe Illustrator 19.0.0, SVG Export Plug-In . SVG Version: 6.00 Build 0)  -->
<svg version="1.1" xmlns="http://www.w3.org/2000/svg" xmlns:xlink="http://www.w3.org/1999/xlink" x="0px" y="0px"
	 viewBox="0 0 1000 1000" style="enable-background:new 0 0 1000 1000;" xml:space="preserve">
<style type="text/css">
	.st0{fill:#C5E1A5;}
	.st1{fill:#FFFFFF;}
</style>
<g id="Ebene_1">
	<path id="XMLID_1_" class="st0" d="M997,1000H3c-1.7,0-3-1.3-3-3V3c0-1.7,1.3-3,3-3h994c1.7,0,3,1.3,3,3v994
		C1000,998.7,998.7,1000,997,1000z"/>
</g>
<g id="Ebene_2">
	<path id="XMLID_3_" class="st1" d="M904.6,542.4H95.4c-1.7,0-3-1.3-3-3v-78.7c0-1.7,1.3-3,3-3h809.3c1.7,0,3,1.3,3,3v78.7
		C907.6,541,906.3,542.4,904.6,542.4z"/>
	<path id="XMLID_4_" class="st1" d="M904.6,342.4H95.4c-1.7,0-3-1.3-3-3v-78.7c0-1.7,1.3-3,3-3h809.3c1.7,0,3,1.3,3,3v78.7
		C907.6,341,906.3,342.4,904.6,342.4z"/>
	<path id="XMLID_5_" class="st1" d="M904.6,742.4H95.4c-1.7,0-3-1.3-3-3v-78.7c0-1.7,1.3-3,3-3h809.3c1.7,0,3,1.3,3,3v78.7
		C907.6,741,906.3,742.4,904.6,742.4z"/>
</g>
</svg>
